<svg xmlns="http://www.w3.org/2000/svg" xml:space="preserve" width="1000" height="200" fill="#d71e23" viewBox="0 0 18300 4500">
  <g>
    <path d="M9762.57 10965.14h-919.98l-16.26-6.34-1503.11-587.57-1505.87 587.57-11.7 4.59-13.07 1.22-1561.77 148.41-1101.49 104.68 1063.87-368.86 2310.78-801.18-1637.95-632.39-682.82-263.65H5791.85l16.34 6.34 1515.15 588.17 1520.84-588.17 10.07-3.87 9.16-1.41 1387.94-210.31 1176.53-178.23-1130.4 440.82-2177.34 849.16 1674.88 647.37 682.14 263.69zM25513.84 9520.4l-1909.01 1441.85-22.15 16.76H22890.37l-22.99-18.73-1765.39-1440.56-285.38-232.88 334.47.04 546.45.08 26.18.03 21.81 17.22 1490.38 1177.59 1395.27-1177.02 22.8-19.23h27.39l785.97.04 357.39.04zM20426.09 10961.19l-3902.48.11-112.2.04v-126.1l.04-1448.81.03-126.03 112.17-.04 3900.12-.04h112.85l-.65 126.56-.49 99.32-.61 125.69-111.59-.11-3041.39-2.32 1.98 321.56 3037.7 3.04 110.15.11 2.05 123.98 1.37 82.57 2.13 128.04h-114.33l-3031.51.19-.08 352.29 3034.63-6 112.05-.19.15 126.26.11 93.81.19 126.07z" transform="translate(-5400 -7700)"/>
    <path d="M10993.7 9274.72h2025.85v.31c436.26.07 834.53 18.08 1194.5 53.91 64.18 6.38 122.2 12.69 173.53 18.85 292.72 35.03 559.06 82.79 798.89 143.01h.31c290.28 73.26 510.05 157.91 658.95 253.81 165.36 106.47 248.23 229.3 248.23 368.33 0 134.01-84.73 253.7-253.85 359.02-151.26 94.11-375.32 179.57-671.69 256.2-292.33 75.39-618.18 131.92-977.39 169.5-359.14 37.58-750.6 56.43-1174.25 56.43H10993.7l-79.14.03-.04-78.42V9353.11l.04-78.35 79.14-.04zm917.33 1354.28h1105.75c300.31 0 574.26-13.53 821.88-40.58 247.42-27.06 469.17-67.52 665.41-121.36h.34l.54-.15-.04-.08c54.41-15.01 104.83-30.62 151.03-46.62 44.95-15.58 87.05-32.14 126.07-49.55 175.88-78.38 264.18-163.64 264.18-255.52 0-60.14-39.13-117.97-117.18-173.41-92.25-65.54-234.16-124.93-425.24-178.12-196.48-54.49-418.14-95.37-665.11-122.69-247.66-27.39-521.61-41.11-821.88-41.11h-1105.75V10629z" transform="translate(-5400 -7700)"/>
  </g>
</svg>
